/* XPM */
static char *_____________[] = {
/* columns rows colors chars-per-pixel */
"32 32 137 2",
"   c #9C0707",
".  c #9C0B0B",
"X  c #990012",
"o  c #9D0012",
"O  c #9E0013",
"+  c #9F0014",
"@  c #A00303",
"#  c #A30404",
"$  c #A70506",
"%  c #A60707",
"&  c #A60808",
"*  c #A6090A",
"=  c #AC0C0C",
"-  c #A50013",
";  c #A70013",
":  c #A40114",
">  c #A60014",
",  c #A70014",
"<  c #A50215",
"1  c #A90115",
"2  c #AA0115",
"3  c #AB0317",
"4  c #AE0216",
"5  c #AD0518",
"6  c #AF0619",
"7  c #AD0D1D",
"8  c #B20417",
"9  c #BF0B11",
"0  c #BB0F13",
"q  c #B70519",
"w  c #B6061A",
"e  c #B80519",
"r  c #BD071A",
"t  c #AB1616",
"y  c #B41212",
"u  c #BC1818",
"i  c #BC1221",
"p  c #BD1322",
"a  c #CB0E16",
"s  c #CE0E17",
"d  c #C1091B",
"f  c #C3091C",
"g  c #C60C1E",
"h  c #CA0B1E",
"j  c #D00C1F",
"k  c #CE1019",
"l  c #C31E1E",
"z  c #C41E1E",
"x  c #C51F1F",
"c  c #D5101A",
"v  c #D6101A",
"b  c #D00D20",
"n  c #D20E21",
"m  c #D40E21",
"M  c #D50E21",
"N  c #D50F21",
"B  c #DA0F23",
"V  c #C71B27",
"C  c #CD1E29",
"Z  c #D61122",
"A  c #DA1022",
"S  c #DA1123",
"D  c #DB1520",
"F  c #DE1024",
"G  c #DE1124",
"H  c #DF1426",
"J  c #E01520",
"K  c #E61422",
"L  c #E71422",
"P  c #E21225",
"I  c #E61326",
"U  c #E71426",
"Y  c #E81526",
"T  c #EA1527",
"R  c #EC1624",
"E  c #EA1528",
"W  c #EE1628",
"Q  c #EE1629",
"!  c #EC1829",
"~  c #EE1829",
"^  c #F21729",
"/  c #F5182A",
"(  c #F7192A",
")  c #F7182C",
"_  c #F71A2C",
"`  c #F8192B",
"'  c #FA1A2B",
"]  c #FB192C",
"[  c #FA1A2C",
"{  c #FD1A2C",
"}  c #FD1B2C",
"|  c #FD1A2D",
" . c #FF1B2D",
".. c #FF1A2E",
"X. c #FF1B2E",
"o. c #FF1C2D",
"O. c #FF1C2E",
"+. c #CD2525",
"@. c #CE2525",
"#. c #CC202B",
"$. c #CD202C",
"%. c #CF2E2E",
"&. c #D3262F",
"*. c #D32A2A",
"=. c #D42A2A",
"-. c #D42D2D",
";. c #D82B2C",
":. c #D92E2E",
">. c #D32630",
",. c #D22730",
"<. c #D72932",
"1. c #DE3132",
"2. c #DF3333",
"3. c #E43636",
"4. c #E43737",
"5. c #E4343A",
"6. c #E43B3F",
"7. c #E93B3B",
"8. c #EE3E3E",
"9. c #EF3E3E",
"0. c #EB3F41",
"q. c #EF4242",
"w. c #EB4646",
"e. c #F14041",
"r. c #F34141",
"t. c #F34242",
"y. c #F74545",
"u. c #F94647",
"i. c #F84747",
"p. c #FA4648",
"a. c #FB4848",
"s. c #FD4949",
"d. c #FE4A4A",
"f. c #FE4B4B",
"g. c #FF4B4B",
"h. c #FF4C4C",
"j. c None",
/* pixels */
"j.j.j.j.j.j.j.j.j.j.j.j.j.j.j.j.j.j.j.j.j.j.j.j.j.j.j.j.j.j.j.j.",
"j.j.j.j.j.j.j.j.j.j.j.j... . . . . ...o.j.j.j.j.j.j.j.j.j.j.j.j.",
"j.j.j.j.j.j.j.j.j.o. . . . . . . . .o. .o.o.o.j.j.j.j.j.j.j.j.j.",
"j.j.j.j.j.j.j.j. . . . . . . . .{ U c s s v K ` j.j.j.j.j.j.j.j.",
"j.j.j.j.j.j.o. . . . . . . ._ a $ @   @ @ @ @ $ 9 R j.j.j.j.j.j.",
"j.j.j.j.j. . . . . . . . .J & j.j.  & $ $ $ % % $ & k j.j.j.j.j.",
"j.j.j.j. . . . . . . . .D j.j.j.j.j.j.. = = = = = = = 0 j.j.j.j.",
"j.j.j.j.] ]  . . .]  .~ j.j.j.j.j.j.j.j.j.y y y y y y y j.j.j.j.",
"j.j.j.] ] ] ] ` ] [ [ j.j.j.j.j.j.j.j.j.j.t u u u u u u u j.j.j.",
"j.j.) ] ` ` _ ` ` ` j.j.j.j.j.j.j.j.j.j.j.j.x x l +.l +.l l j.j.",
"j.j./ / / / / / _ ~ j.j.j.j.j.j.j.j.j.j.j.j.j.+.+.+.+.+.+.+.j.j.",
"j.j.^ ^ ^ ^ ^ ^ / j.j.j.j.j.j.j.j.j.j.j.j.j.j.=.@.*.*.*.=.*.j.j.",
"j.E W W W W W W Y j.j.j.j.j.j.j.j.j.j.j.j.j.j.-.:.:.:.:.:.:.;.j.",
"j.Y E Y W Y E Y Y j.j.j.j.j.j.j.j.j.j.j.j.j.j.%.2.2.2.2.2.2.2.j.",
"j.U I I I I I I H j.j.j.j.j.j.j.j.j.j.j.j.j.j.j.4.4.4.4.4.4.3.j.",
"j.P P P P P P P S j.j.j.j.j.j.j.j.j.j.j.j.j.j.j.7.7.7.7.7.7.7.j.",
"j.G G G G G G G Z j.j.j.j.j.j.j.j.j.j.j.j.j.j.j.8.8.8.8.8.8.8.j.",
"j.B B S S B S B Z j.j.j.j.j.j.j.j.j.j.j.j.j.j.j.t.t.t.t.t.t.r.j.",
"j.m Z m j j m m m j.j.j.j.j.j.j.j.j.j.j.j.j.j.q.y.y.y.y.y.y.t.j.",
"j.g m j m j m j m j.j.j.j.j.j.j.j.j.j.j.j.j.j.u.a.a.a.a.a.a.0.j.",
"j.j.h h h h h h h j.j.j.j.j.j.j.j.j.j.j.j.j.j.f.f.f.f.f.f.f.j.j.",
"j.j.f f f f f f d d j.j.j.j.j.j.j.j.j.j.j.j.j.f.f.f.f.f.f.f.j.j.",
"j.j.5 r r r r r r r j.j.j.j.j.j.j.j.j.j.j.j.f.f.f.f.f.f.f.w.j.j.",
"j.j.j.w e e e e e e w j.j.j.j.j.j.j.j.j.j.h.f.f.f.f.f.f.h.j.j.j.",
"j.j.j.j.8 8 8 8 8 8 8 w j.j.j.j.j.j.j.j.j.f.f.f.f.f.f.f.j.j.j.j.",
"j.j.j.j., 4 4 4 4 4 4 4 C j.j.j.j.j.j.j.f.f.f.f.f.f.f.6.j.j.j.j.",
"j.j.j.j.j., 1 1 1 1 1 1 1 V p.j.j.h.h.f.f.f.f.f.f.f.&.j.j.j.j.j.",
"j.j.j.j.j.j.o 1 , ; 1 , 1 ; 8 <.u.f.f.f.f.f.f.f.5.7 j.j.j.j.j.j.",
"j.j.j.j.j.j.j.j., , , , , , , , 1 i $.>.&.C p 3 j.j.j.j.j.j.j.j.",
"j.j.j.j.j.j.j.j.j.X , , , , , , 1 ; , , 1 ; X j.j.j.j.j.j.j.j.j.",
"j.j.j.j.j.j.j.j.j.j.j.j.o ; , , , , , + j.j.j.j.j.j.j.j.j.j.j.j.",
"j.j.j.j.j.j.j.j.j.j.j.j.j.j.j.j.j.j.j.j.j.j.j.j.j.j.j.j.j.j.j.j."
};
